HIERARCHY
ROOT hip
{
  OFFSET 0 0 0
  CHANNELS 6 Xposition Yposition Zposition Zrotation Yrotation Xrotation
  JOINT abdomen
  {
    OFFSET 0 20.6881 -0.73152
    CHANNELS 3 Zrotation Xrotation Yrotation
    JOINT chest
    {
      OFFSET 0 11.7043 -0.48768
      CHANNELS 3 Zrotation Xrotation Yrotation
      JOINT neck
      {
        OFFSET 0 22.1894 -2.19456
        CHANNELS 3 Zrotation Xrotation Yrotation
        JOINT head
        {
          OFFSET -0.24384 7.07133 1.2192
          CHANNELS 3 Zrotation Xrotation Yrotation
          JOINT leftEye
          {
            OFFSET 4.14528 8.04674 8.04672
            CHANNELS 3 Zrotation Xrotation Yrotation
            End Site
            {
              OFFSET 1 0 0
            }
          }
          JOINT rightEye
          {
            OFFSET -3.6576 8.04674 8.04672
            CHANNELS 3 Zrotation Xrotation Yrotation
            End Site
            {
              OFFSET 1 0 0
            }
          }
        }
      }
      JOINT rCollar
      {
        OFFSET -2.68224 19.2634 -4.8768
        CHANNELS 3 Zrotation Xrotation Yrotation
        JOINT rShldr
        {
          OFFSET -8.77824 -1.95073 1.46304
          CHANNELS 3 Zrotation Xrotation Yrotation
          JOINT rForeArm
          {
            OFFSET -28.1742 -1.7115 0.48768
            CHANNELS 3 Zrotation Xrotation Yrotation
            JOINT rHand
            {
              OFFSET -22.5879 0.773209 7.07136
              CHANNELS 3 Zrotation Xrotation Yrotation
              JOINT rThumb1
              {
                OFFSET -1.2192 -0.487915 3.41376
                CHANNELS 3 Zrotation Xrotation Yrotation
                JOINT rThumb2
                {
                  OFFSET -3.37035 -0.52449 3.41376
                  CHANNELS 3 Zrotation Xrotation Yrotation
                  End Site
                  {
                    OFFSET -1.78271 -1.18214 1.43049
                  }
                }
              }
              JOINT rIndex1
              {
                OFFSET -7.75947 0.938293 5.60832
                CHANNELS 3 Zrotation Xrotation Yrotation
                JOINT rIndex2
                {
                  OFFSET -2.54057 -0.884171 1.56538
                  CHANNELS 3 Zrotation Xrotation Yrotation
                  End Site
                  {
                    OFFSET -1.62519 -0.234802 1.16502
                  }
                }
              }
              JOINT rMid1
              {
                OFFSET -8.24714 1.18213 3.41376
                CHANNELS 3 Zrotation Xrotation Yrotation
                JOINT rMid2
                {
                  OFFSET -3.10165 -0.590103 1.0647
                  CHANNELS 3 Zrotation Xrotation Yrotation
                  End Site
                  {
                    OFFSET -2.48547 -0.328903 0.83742
                  }
                }
              }
              JOINT rRing1
              {
                OFFSET -8.82822 0.546677 1.51678
                CHANNELS 3 Zrotation Xrotation Yrotation
                JOINT rRing2
                {
                  OFFSET -2.60934 -0.819778 -0.0198488
                  CHANNELS 3 Zrotation Xrotation Yrotation
                  End Site
                  {
                    OFFSET -2.33842 -0.294052 0.168128
                  }
                }
              }
              JOINT rPinky1
              {
                OFFSET -8.27202 -0.0477905 -0.4584
                CHANNELS 3 Zrotation Xrotation Yrotation
                JOINT rPinky2
                {
                  OFFSET -1.82734 -0.647385 -0.700984
                  CHANNELS 3 Zrotation Xrotation Yrotation
                  End Site
                  {
                    OFFSET -1.69225 -0.51767 -0.607171
                  }
                }
              }
            }
          }
        }
      }
      JOINT lCollar
      {
        OFFSET 2.68224 19.2634 -4.8768
        CHANNELS 3 Zrotation Xrotation Yrotation
        JOINT lShldr
        {
          OFFSET 8.77824 -1.95073 1.46304
          CHANNELS 3 Zrotation Xrotation Yrotation
          JOINT lForeArm
          {
            OFFSET 28.1742 -1.7115 0.48768
            CHANNELS 3 Zrotation Xrotation Yrotation
            JOINT lHand
            {
              OFFSET 22.5879 0.773209 7.07136
              CHANNELS 3 Zrotation Xrotation Yrotation
              JOINT lThumb1
              {
                OFFSET 1.2192 -0.487915 3.41376
                CHANNELS 3 Zrotation Xrotation Yrotation
                JOINT lThumb2
                {
                  OFFSET 3.37035 -0.52449 3.41376
                  CHANNELS 3 Zrotation Xrotation Yrotation
                  End Site
                  {
                    OFFSET 1.78271 -1.18214 1.43049
                  }
                }
              }
              JOINT lIndex1
              {
                OFFSET 7.75947 0.938293 5.60832
                CHANNELS 3 Zrotation Xrotation Yrotation
                JOINT lIndex2
                {
                  OFFSET 2.54057 -0.884171 1.56538
                  CHANNELS 3 Zrotation Xrotation Yrotation
                  End Site
                  {
                    OFFSET 1.62519 -0.234802 1.16502
                  }
                }
              }
              JOINT lMid1
              {
                OFFSET 8.24714 1.18213 3.41376
                CHANNELS 3 Zrotation Xrotation Yrotation
                JOINT lMid2
                {
                  OFFSET 3.10165 -0.590103 1.0647
                  CHANNELS 3 Zrotation Xrotation Yrotation
                  End Site
                  {
                    OFFSET 2.48547 -0.328903 0.83742
                  }
                }
              }
              JOINT lRing1
              {
                OFFSET 8.82822 0.546677 1.51678
                CHANNELS 3 Zrotation Xrotation Yrotation
                JOINT lRing2
                {
                  OFFSET 2.60934 -0.819778 -0.0198488
                  CHANNELS 3 Zrotation Xrotation Yrotation
                  End Site
                  {
                    OFFSET 2.33842 -0.294052 0.168128
                  }
                }
              }
              JOINT lPinky1
              {
                OFFSET 8.27202 -0.0477905 -0.4584
                CHANNELS 3 Zrotation Xrotation Yrotation
                JOINT lPinky2
                {
                  OFFSET 1.82734 -0.647385 -0.700984
                  CHANNELS 3 Zrotation Xrotation Yrotation
                  End Site
                  {
                    OFFSET 1.69225 -0.51767 -0.607171
                  }
                }
              }
            }
          }
        }
      }
    }
  }
  JOINT rButtock
  {
    OFFSET -8.77824 4.35084 1.2192
    CHANNELS 3 Zrotation Xrotation Yrotation
    JOINT rThigh
    {
      OFFSET 0 -1.70687 -2.19456
      CHANNELS 3 Zrotation Xrotation Yrotation
      JOINT rShin
      {
        OFFSET 0 -36.8199 0.73152
        CHANNELS 3 Zrotation Xrotation Yrotation
        JOINT rFoot
        {
          OFFSET 0.73152 -45.1104 -5.12064
          CHANNELS 3 Zrotation Xrotation Yrotation
          End Site
          {
            OFFSET -1.1221 -3.69964 12.103
          }
        }
      }
    }
  }
  JOINT lButtock
  {
    OFFSET 8.77824 4.35084 1.2192
    CHANNELS 3 Zrotation Xrotation Yrotation
    JOINT lThigh
    {
      OFFSET 0 -1.70687 -2.19456
      CHANNELS 3 Zrotation Xrotation Yrotation
      JOINT lShin
      {
        OFFSET 0 -36.8199 0.73152
        CHANNELS 3 Zrotation Xrotation Yrotation
        JOINT lFoot
        {
          OFFSET -0.73152 -45.1104 -5.12064
          CHANNELS 3 Zrotation Xrotation Yrotation
          End Site
          {
            OFFSET 1.1221 -3.69964 12.103
          }
        }
      }
    }
  }
}
MOTION
Frames:	4
Frame Time:	0.03333
0.0 0.0 0.0 0.0 0.0 0.0 0.0 0.0 0.0 0.0 0.0 0.0 0.0 0.0 0.0 0.0 0.0 0.0 0.0 0.0 0.0 0.0 0.0 0.0 0.0 0.0 0.0 0.0 0.0 0.0 0.0 0.0 0.0 0.0 0.0 0.0 0.0 0.0 0.0 0.0 0.0 0.0 0.0 0.0 0.0 0.0 0.0 0.0 0.0 0.0 0.0 0.0 0.0 0.0 0.0 0.0 0.0 0.0 0.0 0.0 0.0 0.0 0.0 0.0 0.0 0.0 0.0 0.0 0.0 0.0 0.0 0.0 0.0 0.0 0.0 0.0 0.0 0.0 0.0 0.0 0.0 0.0 0.0 0.0 0.0 0.0 0.0 0.0 0.0 0.0 0.0 0.0 0.0 0.0 0.0 0.0 0.0 0.0 0.0 0.0 0.0 0.0 0.0 0.0 0.0 0.0 0.0 0.0 0.0 0.0 0.0 0.0 0.0 0.0 0.0 0.0 0.0 0.0 0.0 0.0 0.0 0.0 0.0 0.0 0.0 0.0 0.0 0.0 0.0 0.0 0.0 0.0
-0.0114 61.2201 0.0578 -0.593311 -26.544281 -1.085158 -0.317811 3.831914 0.008027 -2.535971 7.372532 23.148012 -13.368186 -7.086038 -105.224773 22.107804 56.842145 146.754012 -149.588175 -9.987435 -35.642494 -38.85793 8.85744 -24.768596 -73.516411 -37.070509 -178.825218 -69.089437 -85.759907 -93.0877 -103.781399 -66.468459 70.290835 139.321621 -61.502856 70.424369 106.264629 -21.835177 31.260754 80.455314 55.76614 -14.22824 -30.702534 65.993266 -120.451591 -81.135125 76.857919 -175.687486 -73.000603 47.189916 -24.123513 -79.786453 9.6048 -178.311339 -85.464256 20.378436 -104.93834 -64.107671 -6.078117 -101.511098 -166.848285 17.826783 -100.782353 -28.00717 30.728555 44.288484 86.251247 -25.958592 -169.907395 168.415063 -63.542757 176.294964 -170.725161 -87.030896 29.711845 2.346741 8.74903 105.012905 -84.266842 35.766647 -51.431793 47.37562 -35.79934 30.946884 63.977394 -4.476039 -54.732631 169.014378 18.238828 -99.823781 -54.688347 -59.069367 -98.582048 -63.210214 76.170148 -37.686276 116.095879 -5.700858 -2.68661 -116.586437 -16.963096 51.667075 3.847441 49.088958 23.729689 -43.866472 33.277381 22.407191 -4.43908 -51.780465 0.043589 10.575598 49.266124 180.0 -4.002217 -5.673332 -78.345523 -74.924301 32.687974 99.257774 40.630905 -1.680577 90.790022 3.22448 40.327895 25.826627 8.179748 -1.439591 76.967259 66.509015 65.385924 -85.678564
0.40559999999999996 57.781000000000006 -0.17550000000000002 174.168944 17.29136 177.413677 -8.716081 14.574063 -0.0 1.909109 -9.629302 -4.012067 -4.046774 26.312649 50.659151 -31.248991 -23.853233 -96.983156 -2.89729 0.208691 -8.238028 1.513809 0.140817 10.628337 -148.944193 17.718269 148.036854 -14.644288 -36.808474 -10.962724 162.634497 -12.716027 -130.732249 -6.084394 55.210045 1.28457 87.428652 -61.952327 48.639236 -115.515864 -53.177434 162.184607 -2.395199 -25.04929 -9.367896 -146.130832 -41.033728 120.515378 -161.910063 -12.486789 148.19903 -1.961469 55.869677 10.328738 -176.199358 -26.551516 175.79712 -3.605597 -0.252333 -6.956459 143.637426 39.515005 -99.489733 33.817119 62.449639 -36.355943 36.579851 70.957013 -42.597461 -114.680916 -34.126782 -61.334781 -60.525539 54.39177 -49.325953 14.458139 1.078177 -2.917281 -83.530123 -59.975379 -37.867489 7.897573 -39.023251 37.984519 -28.516029 -41.279283 11.29107 106.705326 10.724501 -65.481923 -0.348449 -25.340413 11.150144 141.621562 -9.5401 -138.884829 -175.270681 -26.40968 -175.811427 -155.61823 0.607424 -171.880573 16.412335 3.665491 1.491239 127.178565 -1.284859 171.615828 -10.007922 3.694303 -0.0 -52.899633 -54.263497 -25.693206 67.865285 50.952728 32.4483 -148.291303 68.032278 78.572034 82.6857 18.12454 28.054359 -61.842782 16.248445 -98.517325 -45.026143 5.871327 79.035045 34.776171 -4.564552 17.56854
1.2409999999999999 57.3748 -0.42240000000000005 172.909342 24.527324 177.743687 -10.405888 11.226956 -0.0 0.369588 -9.464221 3.581042 8.407489 31.397666 105.981324 -35.960305 21.66326 -149.341172 24.266929 1.675245 7.780687 -11.225583 -2.44091 24.462487 -154.354295 -3.200753 163.943206 -86.977445 -52.307546 -93.531806 32.569449 52.861034 -88.417523 160.298529 -27.519359 143.520401 86.017394 -37.397919 35.668769 171.512169 -62.959668 134.727521 -164.784519 -53.939217 123.586535 -27.201627 71.791493 49.171721 -94.636479 -88.662829 -112.51085 5.53069 -7.087228 -18.277394 -157.006559 -4.490871 173.481506 -177.474221 72.312265 -173.48108 -0.280285 -31.510633 -18.628469 -25.91556 -52.286638 9.050932 155.790949 -5.026789 -159.566578 85.306135 22.815452 -47.889245 19.08504 -16.596634 147.497062 165.48157 4.986367 -143.730035 102.109726 34.363369 -59.927251 133.302906 -13.198249 -68.918986 -90.938088 -71.423675 -42.820736 -19.877238 8.719456 1.394979 0.216936 -12.620745 -2.478708 139.405049 49.09885 -129.702633 45.229797 -80.101299 43.806336 168.303716 1.556762 172.679757 8.225205 -2.87675 -4.125775 154.233476 50.422827 138.283921 3.955008 -5.154973 -4.723165 -55.585074 -60.799858 -161.275367 -79.741173 -23.716523 -126.289791 35.737071 52.176986 -128.119273 -165.561503 83.333152 -0.0 -144.387045 87.553663 144.362311 1.759418 -49.136586 -97.618484 67.643987 -59.100764 -17.115912
